<svg width="145" height="38" viewBox="0 0 145 38" fill="none" xmlns="http://www.w3.org/2000/svg">
<g filter="url(#filter0_dd_6331_38293)">
<g clip-path="url(#clip0_6331_38293)">
<rect x="3" y="2" width="32" height="32" rx="8" fill="white"/>
<rect x="3" y="2" width="32" height="32" rx="8" fill="url(#paint0_linear_6331_38293)"/>
<path fill-rule="evenodd" clip-rule="evenodd" d="M19 4.03861C11.2894 4.03861 5.03882 10.2892 5.03882 17.9998C5.03882 25.7103 11.2894 31.9609 19 31.9609C26.7105 31.9609 32.9612 25.7103 32.9612 17.9998C32.9612 10.2892 26.7105 4.03861 19 4.03861ZM4.96115 17.9998C4.96115 10.2463 11.2466 3.96094 19 3.96094C26.7534 3.96094 33.0388 10.2463 33.0388 17.9998C33.0388 25.7532 26.7534 32.0386 19 32.0386C11.2466 32.0386 4.96115 25.7532 4.96115 17.9998Z" fill="#D0D5DD"/>
<path fill-rule="evenodd" clip-rule="evenodd" d="M19 14.0777C16.8338 14.0777 15.0777 15.8338 15.0777 18C15.0777 20.1662 16.8338 21.9223 19 21.9223C21.1662 21.9223 22.9223 20.1662 22.9223 18C22.9223 15.8338 21.1662 14.0777 19 14.0777ZM15 18C15 15.7909 16.7909 14 19 14C21.2091 14 23 15.7909 23 18C23 20.2091 21.2091 22 19 22C16.7909 22 15 20.2091 15 18Z" fill="#D0D5DD"/>
<path fill-rule="evenodd" clip-rule="evenodd" d="M19 15.3199C17.5201 15.3199 16.3204 16.5196 16.3204 17.9995C16.3204 19.4794 17.5201 20.6791 19 20.6791C20.4799 20.6791 21.6796 19.4794 21.6796 17.9995C21.6796 16.5196 20.4799 15.3199 19 15.3199ZM16.2427 17.9995C16.2427 16.4767 17.4772 15.2422 19 15.2422C20.5228 15.2422 21.7573 16.4767 21.7573 17.9995C21.7573 19.5223 20.5228 20.7568 19 20.7568C17.4772 20.7568 16.2427 19.5223 16.2427 17.9995Z" fill="#D0D5DD"/>
<path d="M18.9612 2H19.0388V34H18.9612V2Z" fill="#D0D5DD"/>
<path d="M35 17.9609L35 18.0386L3 18.0386L3 17.9609L35 17.9609Z" fill="#D0D5DD"/>
<path d="M29.602 2H29.6796V34H29.602V2Z" fill="#D0D5DD"/>
<path d="M13.6408 2H13.7184V34H13.6408V2Z" fill="#D0D5DD"/>
<path d="M24.2816 2H24.3592V34H24.2816V2Z" fill="#D0D5DD"/>
<path d="M8.32037 2H8.39804V34H8.32037V2Z" fill="#D0D5DD"/>
<path d="M35 28.6016L35 28.6792L3 28.6792L3 28.6016L35 28.6016Z" fill="#D0D5DD"/>
<path d="M35 12.6406L35 12.7183L3 12.7183L3 12.6406L35 12.6406Z" fill="#D0D5DD"/>
<path d="M35 23.2812L35 23.3589L3 23.3589L3 23.2812L35 23.2812Z" fill="#D0D5DD"/>
<path d="M35 7.32031L35 7.39798L3 7.39798L3 7.32031L35 7.32031Z" fill="#D0D5DD"/>
<g filter="url(#filter1_dd_6331_38293)">
<circle cx="19" cy="18" r="8" fill="#C04200"/>
</g>
<g filter="url(#filter2_b_6331_38293)">
<path d="M3 18H35V21.2C35 25.6804 35 27.9206 34.1281 29.6319C33.3611 31.1372 32.1372 32.3611 30.6319 33.1281C28.9206 34 26.6804 34 22.2 34H15.8C11.3196 34 9.07937 34 7.36808 33.1281C5.86278 32.3611 4.63893 31.1372 3.87195 29.6319C3 27.9206 3 25.6804 3 21.2V18Z" fill="white" fill-opacity="0.2"/>
</g>
</g>
<rect x="3.15" y="2.15" width="31.7" height="31.7" rx="7.85" stroke="#D0D5DD" stroke-width="0.3"/>
</g>
<path d="M46.1477 24V12.3636H50.6023C51.4432 12.3636 52.142 12.4962 52.6989 12.7614C53.2595 13.0227 53.678 13.3807 53.9545 13.8352C54.2348 14.2898 54.375 14.8049 54.375 15.3807C54.375 15.8542 54.2841 16.2595 54.1023 16.5966C53.9205 16.9299 53.6761 17.2008 53.3693 17.4091C53.0625 17.6174 52.7197 17.767 52.3409 17.858V17.9716C52.7538 17.9943 53.1496 18.1212 53.5284 18.3523C53.911 18.5795 54.2235 18.9015 54.4659 19.3182C54.7083 19.7348 54.8295 20.2386 54.8295 20.8295C54.8295 21.4318 54.6837 21.9735 54.392 22.4545C54.1004 22.9318 53.661 23.3087 53.0739 23.5852C52.4867 23.8617 51.7481 24 50.858 24H46.1477ZM48.2557 22.2386H50.5227C51.2879 22.2386 51.839 22.0928 52.1761 21.8011C52.517 21.5057 52.6875 21.1269 52.6875 20.6648C52.6875 20.3201 52.6023 20.0095 52.4318 19.733C52.2614 19.4527 52.0189 19.233 51.7045 19.0739C51.3902 18.911 51.0152 18.8295 50.5795 18.8295H48.2557V22.2386ZM48.2557 17.3125H50.3409C50.7045 17.3125 51.0322 17.2462 51.3239 17.1136C51.6155 16.9773 51.8447 16.786 52.0114 16.5398C52.1818 16.2898 52.267 15.9943 52.267 15.6534C52.267 15.2027 52.108 14.8314 51.7898 14.5398C51.4754 14.2481 51.0076 14.1023 50.3864 14.1023H48.2557V17.3125ZM58.7713 12.3636V24H56.6634V12.3636H58.7713ZM60.8381 24V22.6875L66.804 14.1307H60.804V12.3636H69.4176V13.6761L63.4574 22.233H69.4517V24H60.8381ZM81.054 12.3636V24H79.179L73.696 16.0739H73.5994V24H71.4915V12.3636H73.3778L78.8551 20.2955H78.9574V12.3636H81.054ZM83.3509 24V12.3636H90.919V14.1307H85.4588V17.2898H90.527V19.0568H85.4588V22.233H90.9645V24H83.3509ZM99.3935 15.5625C99.3404 15.0663 99.117 14.6799 98.723 14.4034C98.3329 14.1269 97.8253 13.9886 97.2003 13.9886C96.7609 13.9886 96.384 14.0549 96.0696 14.1875C95.7552 14.3201 95.5147 14.5 95.348 14.7273C95.1813 14.9545 95.0961 15.214 95.0923 15.5057C95.0923 15.7481 95.1473 15.9583 95.2571 16.1364C95.3707 16.3144 95.5241 16.4659 95.7173 16.5909C95.9105 16.7121 96.1245 16.8144 96.3594 16.8977C96.5942 16.9811 96.831 17.0511 97.0696 17.108L98.1605 17.3807C98.5999 17.483 99.0223 17.6212 99.4276 17.7955C99.8366 17.9697 100.202 18.1894 100.524 18.4545C100.85 18.7197 101.107 19.0398 101.297 19.4148C101.486 19.7898 101.581 20.2292 101.581 20.733C101.581 21.4148 101.407 22.0152 101.058 22.5341C100.71 23.0492 100.206 23.4527 99.5469 23.7443C98.8916 24.0322 98.098 24.1761 97.1662 24.1761C96.2609 24.1761 95.4749 24.036 94.8082 23.7557C94.1454 23.4754 93.6264 23.0663 93.2514 22.5284C92.8802 21.9905 92.6795 21.3352 92.6491 20.5625H94.723C94.7533 20.9678 94.8783 21.3049 95.098 21.5739C95.3177 21.8428 95.6037 22.0436 95.956 22.1761C96.312 22.3087 96.7098 22.375 97.1491 22.375C97.6075 22.375 98.009 22.3068 98.3537 22.1705C98.7022 22.0303 98.9749 21.8371 99.1719 21.5909C99.3688 21.3409 99.4692 21.0492 99.473 20.7159C99.4692 20.4129 99.3802 20.1629 99.206 19.9659C99.0317 19.7652 98.7874 19.5985 98.473 19.4659C98.1624 19.3295 97.7988 19.2083 97.3821 19.1023L96.0582 18.7614C95.0999 18.5152 94.3423 18.142 93.7855 17.642C93.2325 17.1383 92.956 16.4697 92.956 15.6364C92.956 14.9508 93.1416 14.3504 93.5128 13.8352C93.8878 13.3201 94.3973 12.9205 95.0412 12.6364C95.6851 12.3485 96.4143 12.2045 97.2287 12.2045C98.0545 12.2045 98.7779 12.3485 99.3991 12.6364C100.024 12.9205 100.515 13.3163 100.871 13.8239C101.227 14.3277 101.411 14.9072 101.422 15.5625H99.3935ZM102.949 14.1307V12.3636H112.233V14.1307H108.636V24H106.545V14.1307H102.949Z" fill="#C04200"/>
<defs>
<filter id="filter0_dd_6331_38293" x="0" y="0" width="38" height="38" filterUnits="userSpaceOnUse" color-interpolation-filters="sRGB">
<feFlood flood-opacity="0" result="BackgroundImageFix"/>
<feColorMatrix in="SourceAlpha" type="matrix" values="0 0 0 0 0 0 0 0 0 0 0 0 0 0 0 0 0 0 127 0" result="hardAlpha"/>
<feOffset dy="1"/>
<feGaussianBlur stdDeviation="1"/>
<feColorMatrix type="matrix" values="0 0 0 0 0.0627451 0 0 0 0 0.0941176 0 0 0 0 0.156863 0 0 0 0.06 0"/>
<feBlend mode="normal" in2="BackgroundImageFix" result="effect1_dropShadow_6331_38293"/>
<feColorMatrix in="SourceAlpha" type="matrix" values="0 0 0 0 0 0 0 0 0 0 0 0 0 0 0 0 0 0 127 0" result="hardAlpha"/>
<feOffset dy="1"/>
<feGaussianBlur stdDeviation="1.5"/>
<feColorMatrix type="matrix" values="0 0 0 0 0.0627451 0 0 0 0 0.0941176 0 0 0 0 0.156863 0 0 0 0.1 0"/>
<feBlend mode="normal" in2="effect1_dropShadow_6331_38293" result="effect2_dropShadow_6331_38293"/>
<feBlend mode="normal" in="SourceGraphic" in2="effect2_dropShadow_6331_38293" result="shape"/>
</filter>
<filter id="filter1_dd_6331_38293" x="8" y="8" width="22" height="22" filterUnits="userSpaceOnUse" color-interpolation-filters="sRGB">
<feFlood flood-opacity="0" result="BackgroundImageFix"/>
<feColorMatrix in="SourceAlpha" type="matrix" values="0 0 0 0 0 0 0 0 0 0 0 0 0 0 0 0 0 0 127 0" result="hardAlpha"/>
<feOffset dy="1"/>
<feGaussianBlur stdDeviation="1"/>
<feColorMatrix type="matrix" values="0 0 0 0 0.0627451 0 0 0 0 0.0941176 0 0 0 0 0.156863 0 0 0 0.06 0"/>
<feBlend mode="normal" in2="BackgroundImageFix" result="effect1_dropShadow_6331_38293"/>
<feColorMatrix in="SourceAlpha" type="matrix" values="0 0 0 0 0 0 0 0 0 0 0 0 0 0 0 0 0 0 127 0" result="hardAlpha"/>
<feOffset dy="1"/>
<feGaussianBlur stdDeviation="1.5"/>
<feColorMatrix type="matrix" values="0 0 0 0 0.0627451 0 0 0 0 0.0941176 0 0 0 0 0.156863 0 0 0 0.1 0"/>
<feBlend mode="normal" in2="effect1_dropShadow_6331_38293" result="effect2_dropShadow_6331_38293"/>
<feBlend mode="normal" in="SourceGraphic" in2="effect2_dropShadow_6331_38293" result="shape"/>
</filter>
<filter id="filter2_b_6331_38293" x="-2" y="13" width="42" height="26" filterUnits="userSpaceOnUse" color-interpolation-filters="sRGB">
<feFlood flood-opacity="0" result="BackgroundImageFix"/>
<feGaussianBlur in="BackgroundImageFix" stdDeviation="2.5"/>
<feComposite in2="SourceAlpha" operator="in" result="effect1_backgroundBlur_6331_38293"/>
<feBlend mode="normal" in="SourceGraphic" in2="effect1_backgroundBlur_6331_38293" result="shape"/>
</filter>
<linearGradient id="paint0_linear_6331_38293" x1="19" y1="2" x2="19" y2="34" gradientUnits="userSpaceOnUse">
<stop stop-color="white"/>
<stop offset="1" stop-color="#D0D5DD"/>
</linearGradient>
<clipPath id="clip0_6331_38293">
<rect x="3" y="2" width="32" height="32" rx="8" fill="white"/>
</clipPath>
</defs>
</svg>
